Griffith_Gothic-Condensed_Black.ufo
<glyph name="quotesingle" format="1">
  <advance width="187"/>
  <unicode hex="0027"/>
  <outline>
    <contour>
      <point x="159" y="720" type="line"/>
      <point x="127" y="444" type="line"/>
      <point x="61" y="444" type="line"/>
      <point x="28" y="720" type="line"/>
    </contour>
  </outline>
</glyph>
<glyph name="parenleft" format="1">
  <advance width="302"/>
  <unicode hex="0028"/>
  <outline>
    <contour>
      <point x="290" y="-95" type="curve"/>
      <point x="183" y="-95" type="line"/>
      <point x="101" y="3"/>
      <point x="32" y="136"/>
      <point x="32" y="320" type="curve" smooth="yes"/>
      <point x="32" y="504"/>
      <point x="101" y="637"/>
      <point x="183" y="735" type="curve"/>
      <point x="290" y="735" type="line"/>
      <point x="201" y="604"/>
      <point x="163" y="473"/>
      <point x="163" y="320" type="curve" smooth="yes"/>
      <point x="163" y="167"/>
      <point x="201" y="36"/>
    </contour>
  </outline>
</glyph>
<glyph name="asterisk" format="1">
  <advance width="330"/>
  <unicode hex="002A"/>
  <outline>
    <contour>
      <point x="311" y="583" type="line"/>
      <point x="198" y="576" type="line"/>
      <point x="289" y="503" type="line"/>
      <point x="210" y="445" type="line"/>
      <point x="165" y="556" type="line"/>
      <point x="120" y="445" type="line"/>
      <point x="41" y="503" type="line"/>
      <point x="132" y="576" type="line"/>
      <point x="19" y="583" type="line"/>
      <point x="49" y="674" type="line"/>
      <point x="146" y="609" type="line"/>
      <point x="116" y="720" type="line"/>
      <point x="214" y="720" type="line"/>
      <point x="184" y="609" type="line"/>
      <point x="281" y="674" type="line"/>
    </contour>
  </outline>
</glyph>
<glyph name="plus" format="1">
  <advance width="476"/>
  <unicode hex="002B"/>
  <outline>
    <contour>
      <point x="449" y="300" type="line"/>
      <point x="297" y="300" type="line"/>
      <point x="297" y="111" type="line"/>
      <point x="179" y="111" type="line"/>
      <point x="179" y="300" type="line"/>
      <point x="27" y="300" type="line"/>
      <point x="27" y="410" type="line"/>
      <point x="179" y="410" type="line"/>
      <point x="179" y="599" type="line"/>
      <point x="297" y="599" type="line"/>
      <point x="297" y="410" type="line"/>
      <point x="449" y="410" type="line"/>
    </contour>
  </outline>
</glyph>
<glyph name="hyphen" format="1">
  <advance width="269"/>
  <unicode hex="002D"/>
  <unicode hex="2010"/>
  <unicode hex="2011"/>
  <outline>
    <contour>
      <point x="246" y="231" type="line"/>
      <point x="26" y="231" type="line"/>
      <point x="26" y="346" type="line"/>
      <point x="246" y="346" type="line"/>
    </contour>
  </outline>
</glyph>
<glyph name="slash" format="1">
  <advance width="352"/>
  <unicode hex="002F"/>
  <outline>
    <contour>
      <point x="344" y="735" type="line"/>
      <point x="99" y="-95" type="line"/>
      <point x="-15" y="-95" type="line"/>
      <point x="230" y="735" type="line"/>
    </contour>
  </outline>
</glyph>
<glyph name="four" format="1">
  <advance width="471"/>
  <unicode hex="0034"/>
  <outline>
    <contour>
      <point x="454" y="185" type="line"/>
      <point x="390" y="185" type="line"/>
      <point x="390" y="0" type="line"/>
      <point x="256" y="0" type="line"/>
      <point x="256" y="185" type="line"/>
      <point x="19" y="185" type="line"/>
      <point x="19" y="278" type="line"/>
      <point x="225" y="720" type="line"/>
      <point x="390" y="720" type="line"/>
      <point x="390" y="263" type="line"/>
      <point x="454" y="263" type="line"/>
    </contour>
    <contour>
      <point x="256" y="263" type="line"/>
      <point x="256" y="582" type="line"/>
      <point x="249" y="582" type="line"/>
      <point x="107" y="271" type="line"/>
      <point x="107" y="263" type="line"/>
    </contour>
  </outline>
</glyph>
<glyph name="eight" format="1">
  <advance width="478"/>
  <unicode hex="0038"/>
  <outline>
    <contour>
      <point x="458" y="199" type="curve" smooth="yes"/>
      <point x="458" y="59"/>
      <point x="357" y="-12"/>
      <point x="238" y="-12" type="curve" smooth="yes"/>
      <point x="119" y="-12"/>
      <point x="20" y="58"/>
      <point x="20" y="198" type="curve" smooth="yes"/>
      <point x="20" y="307"/>
      <point x="77" y="364"/>
      <point x="126" y="382" type="curve"/>
      <point x="126" y="386" type="line"/>
      <point x="83" y="406"/>
      <point x="35" y="452"/>
      <point x="35" y="542" type="curve" smooth="yes"/>
      <point x="35" y="658"/>
      <point x="120" y="732"/>
      <point x="238" y="732" type="curve" smooth="yes"/>
      <point x="357" y="732"/>
      <point x="442" y="660"/>
      <point x="442" y="544" type="curve" smooth="yes"/>
      <point x="442" y="456"/>
      <point x="392" y="406"/>
      <point x="350" y="386" type="curve"/>
      <point x="350" y="383" type="line"/>
      <point x="400" y="364"/>
      <point x="458" y="307"/>
    </contour>
    <contour>
      <point x="311" y="529" type="curve" smooth="yes"/>
      <point x="311" y="600"/>
      <point x="289" y="635"/>
      <point x="238" y="635" type="curve" smooth="yes"/>
      <point x="187" y="635"/>
      <point x="167" y="596"/>
      <point x="167" y="530" type="curve" smooth="yes"/>
      <point x="167" y="463"/>
      <point x="190" y="424"/>
      <point x="238" y="424" type="curve" smooth="yes"/>
      <point x="286" y="424"/>
      <point x="311" y="457"/>
    </contour>
    <contour>
      <point x="321" y="209" type="curve" smooth="yes"/>
      <point x="321" y="291"/>
      <point x="291" y="338"/>
      <point x="237" y="338" type="curve" smooth="yes"/>
      <point x="183" y="338"/>
      <point x="156" y="292"/>
      <point x="156" y="211" type="curve" smooth="yes"/>
      <point x="156" y="131"/>
      <point x="181" y="85"/>
      <point x="237" y="85" type="curve" smooth="yes"/>
      <point x="292" y="85"/>
      <point x="321" y="129"/>
    </contour>
  </outline>
</glyph>
<glyph name="nine" format="1">
  <advance width="482"/>
  <unicode hex="0039"/>
  <outline>
    <contour>
      <point x="457" y="460" type="curve" smooth="yes"/>
      <point x="457" y="273"/>
      <point x="383" y="128"/>
      <point x="266" y="0" type="curve"/>
      <point x="93" y="0" type="line"/>
      <point x="213" y="106"/>
      <point x="291" y="226"/>
      <point x="316" y="317" type="curve"/>
      <point x="312" y="317" type="line"/>
      <point x="289" y="285"/>
      <point x="254" y="253"/>
      <point x="193" y="253" type="curve" smooth="yes"/>
      <point x="95" y="253"/>
      <point x="19" y="327"/>
      <point x="19" y="480" type="curve" smooth="yes"/>
      <point x="19" y="643"/>
      <point x="103" y="732"/>
      <point x="241" y="732" type="curve" smooth="yes"/>
      <point x="378" y="732"/>
      <point x="457" y="645"/>
    </contour>
    <contour>
      <point x="318" y="490" type="curve" smooth="yes"/>
      <point x="318" y="573"/>
      <point x="298" y="632"/>
      <point x="238" y="632" type="curve" smooth="yes"/>
      <point x="178" y="632"/>
      <point x="157" y="572"/>
      <point x="157" y="490" type="curve" smooth="yes"/>
      <point x="157" y="409"/>
      <point x="176" y="352"/>
      <point x="236" y="352" type="curve" smooth="yes"/>
      <point x="296" y="352"/>
      <point x="318" y="413"/>
    </contour>
  </outline>
</glyph>
<glyph name="equal" format="1">
  <advance width="472"/>
  <unicode hex="003D"/>
  <outline>
    <contour>
      <point x="433" y="427" type="line"/>
      <point x="39" y="427" type="line"/>
      <point x="39" y="535" type="line"/>
      <point x="433" y="535" type="line"/>
    </contour>
    <contour>
      <point x="433" y="193" type="line"/>
      <point x="39" y="193" type="line"/>
      <point x="39" y="300" type="line"/>
      <point x="433" y="300" type="line"/>
    </contour>
  </outline>
</glyph>
<glyph name="greater" format="1">
  <advance width="475"/>
  <unicode hex="003E"/>
  <outline>
    <contour>
      <point x="446" y="296" type="line"/>
      <point x="33" y="93" type="line"/>
      <point x="33" y="223" type="line"/>
      <point x="329" y="355" type="line"/>
      <point x="33" y="488" type="line"/>
      <point x="33" y="618" type="line"/>
      <point x="446" y="414" type="line"/>
    </contour>
  </outline>
</glyph>
<glyph name="question" format="1">
  <advance width="417"/>
  <unicode hex="003F"/>
  <outline>
    <contour>
      <point x="396" y="546" type="curve" smooth="yes"/>
      <point x="396" y="451"/>
      <point x="360" y="406"/>
      <point x="298" y="348" type="curve" smooth="yes"/>
      <point x="251" y="304"/>
      <point x="234" y="277"/>
      <point x="229" y="215" type="curve"/>
      <point x="151" y="215" type="line"/>
      <point x="135" y="316"/>
      <point x="149" y="359"/>
      <point x="211" y="427" type="curve" smooth="yes"/>
      <point x="248" y="467"/>
      <point x="262" y="498"/>
      <point x="262" y="543" type="curve" smooth="yes"/>
      <point x="262" y="595"/>
      <point x="242" y="625"/>
      <point x="207" y="625" type="curve" smooth="yes"/>
      <point x="168" y="625"/>
      <point x="145" y="597"/>
      <point x="123" y="506" type="curve"/>
      <point x="9" y="543" type="line"/>
      <point x="33" y="665"/>
      <point x="91" y="732"/>
      <point x="212" y="732" type="curve" smooth="yes"/>
      <point x="332" y="732"/>
      <point x="396" y="659"/>
    </contour>
    <contour>
      <point x="267" y="68" type="curve" smooth="yes"/>
      <point x="267" y="25"/>
      <point x="235" y="-7"/>
      <point x="193" y="-7" type="curve" smooth="yes"/>
      <point x="150" y="-7"/>
      <point x="118" y="25"/>
      <point x="118" y="68" type="curve" smooth="yes"/>
      <point x="118" y="110"/>
      <point x="150" y="142"/>
      <point x="193" y="142" type="curve" smooth="yes"/>
      <point x="235" y="142"/>
      <point x="267" y="110"/>
    </contour>
  </outline>
</glyph>
<glyph name="at" format="1">
  <advance width="780"/>
  <unicode hex="0040"/>
  <outline>
    <contour>
      <point x="738" y="331" type="curve" smooth="yes"/>
      <point x="738" y="120"/>
      <point x="649" y="25"/>
      <point x="548" y="25" type="curve" smooth="yes"/>
      <point x="478" y="25"/>
      <point x="424" y="62"/>
      <point x="423" y="138" type="curve"/>
      <point x="419" y="138" type="line"/>
      <point x="386" y="67"/>
      <point x="342" y="25"/>
      <point x="283" y="25" type="curve" smooth="yes"/>
      <point x="230" y="25"/>
      <point x="189" y="69"/>
      <point x="189" y="172" type="curve" smooth="yes"/>
      <point x="189" y="357"/>
      <point x="260" y="519"/>
      <point x="359" y="519" type="curve" smooth="yes"/>
      <point x="417" y="519"/>
      <point x="443" y="476"/>
      <point x="454" y="414" type="curve"/>
      <point x="458" y="414" type="line"/>
      <point x="477" y="519" type="line"/>
      <point x="585" y="498" type="line"/>
      <point x="524" y="180" type="line" smooth="yes"/>
      <point x="511" y="111"/>
      <point x="533" y="75"/>
      <point x="580" y="75" type="curve" smooth="yes"/>
      <point x="645" y="75"/>
      <point x="701" y="175"/>
      <point x="701" y="331" type="curve" smooth="yes"/>
      <point x="701" y="559"/>
      <point x="588" y="697"/>
      <point x="401" y="697" type="curve" smooth="yes"/>
      <point x="213" y="697"/>
      <point x="72" y="530"/>
      <point x="72" y="266" type="curve" smooth="yes"/>
      <point x="72" y="-6"/>
      <point x="194" y="-156"/>
      <point x="394" y="-156" type="curve" smooth="yes"/>
      <point x="492" y="-156"/>
      <point x="558" y="-130"/>
      <point x="628" y="-80" type="curve"/>
      <point x="647" y="-112" type="line"/>
      <point x="572" y="-163"/>
      <point x="497" y="-192"/>
      <point x="392" y="-192" type="curve" smooth="yes"/>
      <point x="172" y="-192"/>
      <point x="33" y="-31"/>
      <point x="33" y="265" type="curve" smooth="yes"/>
      <point x="33" y="558"/>
      <point x="196" y="732"/>
      <point x="403" y="732" type="curve" smooth="yes"/>
      <point x="593" y="732"/>
      <point x="738" y="598"/>
    </contour>
    <contour>
      <point x="440" y="342" type="curve" smooth="yes"/>
      <point x="441" y="386"/>
      <point x="426" y="429"/>
      <point x="395" y="429" type="curve" smooth="yes"/>
      <point x="344" y="429"/>
      <point x="300" y="310"/>
      <point x="300" y="182" type="curve" smooth="yes"/>
      <point x="300" y="136"/>
      <point x="312" y="105"/>
      <point x="340" y="105" type="curve" smooth="yes"/>
      <point x="387" y="105"/>
      <point x="439" y="219"/>
    </contour>
  </outline>
</glyph>
<glyph name="A" format="1">
  <advance width="554"/>
  <unicode hex="0041"/>
  <outline>
    <contour>
      <point x="544" y="0" type="line"/>
      <point x="396" y="0" type="line"/>
      <point x="362" y="163" type="line"/>
      <point x="185" y="163" type="line"/>
      <point x="152" y="0" type="line"/>
      <point x="10" y="0" type="line"/>
      <point x="181" y="723" type="line"/>
      <point x="373" y="723" type="line"/>
    </contour>
    <contour>
      <point x="346" y="264" type="line"/>
      <point x="276" y="600" type="line"/>
      <point x="272" y="600" type="line"/>
      <point x="202" y="264" type="line"/>
    </contour>
  </outline>
</glyph>
<glyph name="B" format="1">
  <advance width="487"/>
  <unicode hex="0042"/>
  <outline>
    <contour>
      <point x="471" y="200" type="curve" smooth="yes"/>
      <point x="471" y="71"/>
      <point x="385" y="0"/>
      <point x="241" y="0" type="curve" smooth="yes"/>
      <point x="42" y="0" type="line"/>
      <point x="42" y="720" type="line"/>
      <point x="241" y="720" type="line" smooth="yes"/>
      <point x="371" y="720"/>
      <point x="450" y="656"/>
      <point x="450" y="543" type="curve" smooth="yes"/>
      <point x="450" y="454"/>
      <point x="398" y="408"/>
      <point x="343" y="386" type="curve"/>
      <point x="343" y="382" type="line"/>
      <point x="422" y="356"/>
      <point x="471" y="304"/>
    </contour>
    <contour>
      <point x="316" y="527" type="curve" smooth="yes"/>
      <point x="316" y="592"/>
      <point x="283" y="625"/>
      <point x="226" y="625" type="curve" smooth="yes"/>
      <point x="181" y="625" type="line"/>
      <point x="181" y="424" type="line"/>
      <point x="225" y="424" type="line" smooth="yes"/>
      <point x="281" y="424"/>
      <point x="316" y="458"/>
    </contour>
    <contour>
      <point x="334" y="214" type="curve" smooth="yes"/>
      <point x="334" y="295"/>
      <point x="297" y="336"/>
      <point x="224" y="336" type="curve" smooth="yes"/>
      <point x="181" y="336" type="line"/>
      <point x="181" y="95" type="line"/>
      <point x="224" y="95" type="line" smooth="yes"/>
      <point x="293" y="95"/>
      <point x="334" y="132"/>
    </contour>
  </outline>
</glyph>
<glyph name="D" format="1">
  <advance width="506"/>
  <unicode hex="0044"/>
  <outline>
    <contour>
      <point x="479" y="309" type="line" smooth="yes"/>
      <point x="479" y="102"/>
      <point x="384" y="0"/>
      <point x="235" y="0" type="curve" smooth="yes"/>
      <point x="42" y="0" type="line"/>
      <point x="42" y="720" type="line"/>
      <point x="236" y="720" type="line" smooth="yes"/>
      <point x="385" y="720"/>
      <point x="479" y="618"/>
      <point x="479" y="411" type="curve" smooth="yes"/>
    </contour>
    <contour>
      <point x="334" y="275" type="curve" smooth="yes"/>
      <point x="334" y="444" type="line" smooth="yes"/>
      <point x="334" y="557"/>
      <point x="298" y="614"/>
      <point x="226" y="614" type="curve" smooth="yes"/>
      <point x="186" y="614" type="line"/>
      <point x="186" y="106" type="line"/>
      <point x="227" y="106" type="line" smooth="yes"/>
      <point x="298" y="106"/>
      <point x="334" y="163"/>
    </contour>
  </outline>
</glyph>
<glyph name="E" format="1">
  <advance width="431"/>
  <unicode hex="0045"/>
  <outline>
    <contour>
      <point x="411" y="0" type="line"/>
      <point x="42" y="0" type="line"/>
      <point x="42" y="720" type="line"/>
      <point x="403" y="720" type="line"/>
      <point x="403" y="605" type="line"/>
      <point x="183" y="605" type="line"/>
      <point x="183" y="427" type="line"/>
      <point x="346" y="427" type="line"/>
      <point x="346" y="318" type="line"/>
      <point x="183" y="318" type="line"/>
      <point x="183" y="115" type="line"/>
      <point x="411" y="115" type="line"/>
    </contour>
  </outline>
</glyph>
<glyph name="F" format="1">
  <advance width="411"/>
  <unicode hex="0046"/>
  <outline>
    <contour>
      <point x="396" y="604" type="line"/>
      <point x="184" y="604" type="line"/>
      <point x="184" y="408" type="line"/>
      <point x="343" y="408" type="line"/>
      <point x="343" y="296" type="line"/>
      <point x="184" y="296" type="line"/>
      <point x="184" y="0" type="line"/>
      <point x="42" y="0" type="line"/>
      <point x="42" y="720" type="line"/>
      <point x="396" y="720" type="line"/>
    </contour>
  </outline>
</glyph>
<glyph name="G" format="1">
  <advance width="509"/>
  <unicode hex="0047"/>
  <outline>
    <contour>
      <point x="476" y="-1" type="line"/>
      <point x="427" y="-1" type="line"/>
      <point x="410" y="148" type="line"/>
      <point x="406" y="148" type="line"/>
      <point x="380" y="54"/>
      <point x="332" y="-12"/>
      <point x="236" y="-12" type="curve" smooth="yes"/>
      <point x="110" y="-12"/>
      <point x="28" y="100"/>
      <point x="28" y="304" type="curve" smooth="yes"/>
      <point x="28" y="417" type="line" smooth="yes"/>
      <point x="28" y="626"/>
      <point x="120" y="732"/>
      <point x="252" y="732" type="curve" smooth="yes"/>
      <point x="390" y="732"/>
      <point x="446" y="644"/>
      <point x="463" y="504" type="curve"/>
      <point x="329" y="471" type="line"/>
      <point x="319" y="579"/>
      <point x="299" y="623"/>
      <point x="252" y="623" type="curve" smooth="yes"/>
      <point x="196" y="623"/>
      <point x="173" y="549"/>
      <point x="173" y="435" type="curve" smooth="yes"/>
      <point x="173" y="288" type="line" smooth="yes"/>
      <point x="173" y="165"/>
      <point x="200" y="97"/>
      <point x="255" y="97" type="curve" smooth="yes"/>
      <point x="308" y="97"/>
      <point x="333" y="152"/>
      <point x="338" y="287" type="curve"/>
      <point x="259" y="287" type="line"/>
      <point x="259" y="340" type="line"/>
      <point x="476" y="340" type="line"/>
    </contour>
  </outline>
</glyph>
<glyph name="I" format="1">
  <advance width="351"/>
  <unicode hex="0049"/>
  <outline>
    <contour>
      <point x="323" y="0" type="line"/>
      <point x="29" y="0" type="line"/>
      <point x="29" y="50" type="line"/>
      <point x="105" y="50" type="line"/>
      <point x="105" y="670" type="line"/>
      <point x="29" y="670" type="line"/>
      <point x="29" y="720" type="line"/>
      <point x="323" y="720" type="line"/>
      <point x="323" y="670" type="line"/>
      <point x="246" y="670" type="line"/>
      <point x="246" y="50" type="line"/>
      <point x="323" y="50" type="line"/>
    </contour>
  </outline>
</glyph>
<glyph name="K" format="1">
  <advance width="520"/>
  <unicode hex="004B"/>
  <outline>
    <contour>
      <point x="522" y="0" type="line"/>
      <point x="363" y="0" type="line"/>
      <point x="199" y="382" type="line"/>
      <point x="199" y="384" type="line"/>
      <point x="358" y="720" type="line"/>
      <point x="510" y="720" type="line"/>
      <point x="342" y="390" type="line"/>
    </contour>
    <contour>
      <point x="186" y="0" type="line"/>
      <point x="42" y="0" type="line"/>
      <point x="42" y="720" type="line"/>
      <point x="186" y="720" type="line"/>
    </contour>
  </outline>
</glyph>
<glyph name="L" format="1">
  <advance width="405"/>
  <unicode hex="004C"/>
  <outline>
    <contour>
      <point x="394" y="0" type="line"/>
      <point x="42" y="0" type="line"/>
      <point x="42" y="720" type="line"/>
      <point x="186" y="720" type="line"/>
      <point x="186" y="118" type="line"/>
      <point x="394" y="118" type="line"/>
    </contour>
  </outline>
</glyph>
<glyph name="M" format="1">
  <advance width="707"/>
  <unicode hex="004D"/>
  <outline>
    <contour>
      <point x="665" y="0" type="line"/>
      <point x="532" y="0" type="line"/>
      <point x="532" y="553" type="line"/>
      <point x="527" y="553" type="line"/>
      <point x="421" y="0" type="line"/>
      <point x="277" y="0" type="line"/>
      <point x="170" y="553" type="line"/>
      <point x="165" y="553" type="line"/>
      <point x="165" y="0" type="line"/>
      <point x="42" y="0" type="line"/>
      <point x="42" y="720" type="line"/>
      <point x="250" y="720" type="line"/>
      <point x="353" y="183" type="line"/>
      <point x="357" y="183" type="line"/>
      <point x="459" y="720" type="line"/>
      <point x="665" y="720" type="line"/>
    </contour>
  </outline>
</glyph>
<glyph name="P" format="1">
  <advance width="465"/>
  <unicode hex="0050"/>
  <outline>
    <contour>
      <point x="451" y="500" type="curve" smooth="yes"/>
      <point x="451" y="347"/>
      <point x="363" y="268"/>
      <point x="216" y="268" type="curve" smooth="yes"/>
      <point x="184" y="268" type="line"/>
      <point x="184" y="0" type="line"/>
      <point x="42" y="0" type="line"/>
      <point x="42" y="720" type="line"/>
      <point x="216" y="720" type="line" smooth="yes"/>
      <point x="362" y="720"/>
      <point x="451" y="647"/>
    </contour>
    <contour>
      <point x="314" y="497" type="curve" smooth="yes"/>
      <point x="314" y="573"/>
      <point x="282" y="614"/>
      <point x="216" y="614" type="curve" smooth="yes"/>
      <point x="183" y="614" type="line"/>
      <point x="183" y="376" type="line"/>
      <point x="218" y="376" type="line" smooth="yes"/>
      <point x="283" y="376"/>
      <point x="314" y="419"/>
    </contour>
  </outline>
</glyph>
<glyph name="V" format="1">
  <advance width="522"/>
  <unicode hex="0056"/>
  <outline>
    <contour>
      <point x="515" y="720" type="line"/>
      <point x="347" y="-5" type="line"/>
      <point x="178" y="-5" type="line"/>
      <point x="10" y="720" type="line"/>
      <point x="162" y="720" type="line"/>
      <point x="263" y="188" type="line"/>
      <point x="268" y="188" type="line"/>
      <point x="370" y="720" type="line"/>
    </contour>
  </outline>
</glyph>
<glyph name="W" format="1">
  <advance width="778"/>
  <unicode hex="0057"/>
  <outline>
    <contour>
      <point x="766" y="720" type="line"/>
      <point x="649" y="-5" type="line"/>
      <point x="472" y="-5" type="line"/>
      <point x="391" y="532" type="line"/>
      <point x="387" y="532" type="line"/>
      <point x="306" y="-5" type="line"/>
      <point x="129" y="-5" type="line"/>
      <point x="12" y="720" type="line"/>
      <point x="155" y="720" type="line"/>
      <point x="224" y="175" type="line"/>
      <point x="228" y="175" type="line"/>
      <point x="301" y="720" type="line"/>
      <point x="480" y="720" type="line"/>
      <point x="554" y="175" type="line"/>
      <point x="558" y="175" type="line"/>
      <point x="627" y="720" type="line"/>
    </contour>
  </outline>
</glyph>
<glyph name="X" format="1">
  <advance width="516"/>
  <unicode hex="0058"/>
  <outline>
    <contour>
      <point x="504" y="0" type="line"/>
      <point x="345" y="0" type="line"/>
      <point x="250" y="251" type="line"/>
      <point x="148" y="0" type="line"/>
      <point x="12" y="0" type="line"/>
      <point x="173" y="368" type="line"/>
      <point x="23" y="720" type="line"/>
      <point x="182" y="720" type="line"/>
      <point x="267" y="490" type="line"/>
      <point x="358" y="720" type="line"/>
      <point x="494" y="720" type="line"/>
      <point x="344" y="374" type="line"/>
    </contour>
  </outline>
</glyph>
<glyph name="Z" format="1">
  <advance width="446"/>
  <unicode hex="005A"/>
  <outline>
    <contour>
      <point x="428" y="0" type="line"/>
      <point x="19" y="0" type="line"/>
      <point x="19" y="100" type="line"/>
      <point x="268" y="605" type="line"/>
      <point x="32" y="605" type="line"/>
      <point x="32" y="720" type="line"/>
      <point x="428" y="720" type="line"/>
      <point x="428" y="620" type="line"/>
      <point x="179" y="115" type="line"/>
      <point x="428" y="115" type="line"/>
    </contour>
  </outline>
</glyph>
<glyph name="bracketright" format="1">
  <advance width="315"/>
  <unicode hex="005D"/>
  <outline>
    <contour>
      <point x="265" y="-90" type="line"/>
      <point x="18" y="-80" type="line"/>
      <point x="18" y="-20" type="line"/>
      <point x="149" y="-26" type="line"/>
      <point x="149" y="666" type="line"/>
      <point x="18" y="660" type="line"/>
      <point x="18" y="720" type="line"/>
      <point x="265" y="730" type="line"/>
    </contour>
  </outline>
</glyph>
<glyph name="asciicircum" format="1">
  <advance width="425"/>
  <unicode hex="005E"/>
  <outline>
    <contour>
      <point x="403" y="428" type="line"/>
      <point x="317" y="428" type="line"/>
      <point x="213" y="593" type="line"/>
      <point x="109" y="428" type="line"/>
      <point x="22" y="428" type="line"/>
      <point x="155" y="724" type="line"/>
      <point x="270" y="724" type="line"/>
    </contour>
  </outline>
</glyph>
<glyph name="grave" format="1">
  <advance width="397"/>
  <unicode hex="0060"/>
  <outline>
    <contour>
      <point x="291" y="580" type="line"/>
      <point x="201" y="580" type="line"/>
      <point x="80" y="712" type="line"/>
      <point x="228" y="712" type="line"/>
    </contour>
  </outline>
</glyph>
<glyph name="d" format="1">
  <advance width="448"/>
  <unicode hex="0064"/>
  <outline>
    <contour>
      <point x="412" y="14" type="line"/>
      <point x="275" y="-8" type="line"/>
      <point x="275" y="90" type="line"/>
      <point x="272" y="90" type="line"/>
      <point x="242" y="33"/>
      <point x="207" y="-8"/>
      <point x="154" y="-8" type="curve" smooth="yes"/>
      <point x="82" y="-8"/>
      <point x="23" y="69"/>
      <point x="23" y="246" type="curve" smooth="yes"/>
      <point x="23" y="286" type="line" smooth="yes"/>
      <point x="23" y="462"/>
      <point x="84" y="540"/>
      <point x="155" y="540" type="curve" smooth="yes"/>
      <point x="207" y="540"/>
      <point x="242" y="501"/>
      <point x="272" y="447" type="curve"/>
      <point x="275" y="447" type="line"/>
      <point x="275" y="734" type="line"/>
      <point x="412" y="757" type="line"/>
    </contour>
    <contour>
      <point x="280" y="266" type="curve" smooth="yes"/>
      <point x="280" y="386"/>
      <point x="253" y="446"/>
      <point x="215" y="446" type="curve" smooth="yes"/>
      <point x="180" y="446"/>
      <point x="158" y="397"/>
      <point x="158" y="266" type="curve" smooth="yes"/>
      <point x="158" y="133"/>
      <point x="181" y="86"/>
      <point x="216" y="86" type="curve" smooth="yes"/>
      <point x="253" y="86"/>
      <point x="280" y="146"/>
    </contour>
  </outline>
</glyph>
<glyph name="g" format="1">
  <advance width="448"/>
  <unicode hex="0067"/>
  <outline>
    <contour>
      <point x="412" y="16" type="line" smooth="yes"/>
      <point x="412" y="-134"/>
      <point x="340" y="-191"/>
      <point x="197" y="-191" type="curve" smooth="yes"/>
      <point x="136" y="-191"/>
      <point x="92" y="-179"/>
      <point x="59" y="-167" type="curve"/>
      <point x="59" y="-76" type="line"/>
      <point x="87" y="-76" type="line"/>
      <point x="105" y="-105"/>
      <point x="131" y="-121"/>
      <point x="180" y="-121" type="curve" smooth="yes"/>
      <point x="241" y="-121"/>
      <point x="275" y="-89"/>
      <point x="275" y="-1" type="curve" smooth="yes"/>
      <point x="275" y="90" type="line"/>
      <point x="272" y="90" type="line"/>
      <point x="242" y="33"/>
      <point x="207" y="-8"/>
      <point x="154" y="-8" type="curve" smooth="yes"/>
      <point x="82" y="-8"/>
      <point x="23" y="69"/>
      <point x="23" y="246" type="curve" smooth="yes"/>
      <point x="23" y="286" type="line" smooth="yes"/>
      <point x="23" y="462"/>
      <point x="84" y="540"/>
      <point x="155" y="540" type="curve" smooth="yes"/>
      <point x="207" y="540"/>
      <point x="242" y="501"/>
      <point x="272" y="447" type="curve"/>
      <point x="275" y="447" type="line"/>
      <point x="275" y="541" type="line"/>
      <point x="412" y="518" type="line"/>
    </contour>
    <contour>
      <point x="280" y="266" type="curve" smooth="yes"/>
      <point x="280" y="386"/>
      <point x="253" y="446"/>
      <point x="215" y="446" type="curve" smooth="yes"/>
      <point x="180" y="446"/>
      <point x="158" y="397"/>
      <point x="158" y="266" type="curve" smooth="yes"/>
      <point x="158" y="133"/>
      <point x="181" y="86"/>
      <point x="216" y="86" type="curve" smooth="yes"/>
      <point x="253" y="86"/>
      <point x="280" y="146"/>
    </contour>
  </outline>
</glyph>
<glyph name="m" format="1">
  <advance width="666"/>
  <unicode hex="006D"/>
  <outline>
    <contour>
      <point x="633" y="0" type="line"/>
      <point x="498" y="0" type="line"/>
      <point x="498" y="384" type="line" smooth="yes"/>
      <point x="498" y="418"/>
      <point x="487" y="435"/>
      <point x="462" y="435" type="curve" smooth="yes"/>
      <point x="442" y="435"/>
      <point x="422" y="420"/>
      <point x="402" y="389" type="curve"/>
      <point x="402" y="0" type="line"/>
      <point x="267" y="0" type="line"/>
      <point x="267" y="384" type="line" smooth="yes"/>
      <point x="267" y="418"/>
      <point x="256" y="435"/>
      <point x="231" y="435" type="curve" smooth="yes"/>
      <point x="211" y="435"/>
      <point x="191" y="420"/>
      <point x="171" y="389" type="curve"/>
      <point x="171" y="0" type="line"/>
      <point x="36" y="0" type="line"/>
      <point x="36" y="518" type="line"/>
      <point x="171" y="541" type="line"/>
      <point x="171" y="437" type="line"/>
      <point x="174" y="437" type="line"/>
      <point x="220" y="505"/>
      <point x="257" y="539"/>
      <point x="309" y="539" type="curve" smooth="yes"/>
      <point x="364" y="539"/>
      <point x="400" y="503"/>
      <point x="400" y="439" type="curve" smooth="yes"/>
      <point x="400" y="437" type="line"/>
      <point x="405" y="437" type="line"/>
      <point x="452" y="505"/>
      <point x="488" y="539"/>
      <point x="540" y="539" type="curve" smooth="yes"/>
      <point x="600" y="539"/>
      <point x="633" y="496"/>
      <point x="633" y="416" type="curve" smooth="yes"/>
    </contour>
  </outline>
</glyph>
<glyph name="o" format="1">
  <advance width="436"/>
  <unicode hex="006F"/>
  <outline>
    <contour>
      <point x="414" y="241" type="line" smooth="yes"/>
      <point x="414" y="87"/>
      <point x="341" y="-10"/>
      <point x="218" y="-10" type="curve" smooth="yes"/>
      <point x="95" y="-10"/>
      <point x="23" y="87"/>
      <point x="23" y="241" type="curve" smooth="yes"/>
      <point x="23" y="292" type="line" smooth="yes"/>
      <point x="23" y="446"/>
      <point x="96" y="542"/>
      <point x="219" y="542" type="curve" smooth="yes"/>
      <point x="341" y="542"/>
      <point x="414" y="446"/>
      <point x="414" y="292" type="curve" smooth="yes"/>
    </contour>
    <contour>
      <point x="279" y="231" type="curve" smooth="yes"/>
      <point x="279" y="301" type="line" smooth="yes"/>
      <point x="279" y="402"/>
      <point x="259" y="452"/>
      <point x="218" y="452" type="curve" smooth="yes"/>
      <point x="177" y="452"/>
      <point x="158" y="402"/>
      <point x="158" y="301" type="curve" smooth="yes"/>
      <point x="158" y="231" type="line" smooth="yes"/>
      <point x="158" y="130"/>
      <point x="178" y="80"/>
      <point x="219" y="80" type="curve" smooth="yes"/>
      <point x="260" y="80"/>
      <point x="279" y="130"/>
    </contour>
  </outline>
</glyph>
<glyph name="r" format="1">
  <advance width="341"/>
  <unicode hex="0072"/>
  <outline>
    <contour>
      <point x="335" y="394" type="line"/>
      <point x="263" y="382"/>
      <point x="213" y="346"/>
      <point x="173" y="298" type="curve"/>
      <point x="173" y="0" type="line"/>
      <point x="36" y="0" type="line"/>
      <point x="36" y="518" type="line"/>
      <point x="173" y="541" type="line"/>
      <point x="173" y="359" type="line"/>
      <point x="177" y="359" type="line"/>
      <point x="231" y="478"/>
      <point x="279" y="532"/>
      <point x="335" y="541" type="curve"/>
    </contour>
  </outline>
</glyph>
<glyph name="w" format="1">
  <advance width="670"/>
  <unicode hex="0077"/>
  <outline>
    <contour>
      <point x="660" y="532" type="line"/>
      <point x="551" y="-4" type="line"/>
      <point x="400" y="-4" type="line"/>
      <point x="337" y="350" type="line"/>
      <point x="272" y="-4" type="line"/>
      <point x="120" y="-4" type="line"/>
      <point x="10" y="532" type="line"/>
      <point x="144" y="532" type="line"/>
      <point x="205" y="161" type="line"/>
      <point x="267" y="532" type="line"/>
      <point x="410" y="532" type="line"/>
      <point x="472" y="161" type="line"/>
      <point x="532" y="532" type="line"/>
    </contour>
  </outline>
</glyph>
<glyph name="y" format="1">
  <advance width="434"/>
  <unicode hex="0079"/>
  <outline>
    <contour>
      <point x="419" y="532" type="line"/>
      <point x="286" y="-26" type="line" smooth="yes"/>
      <point x="256" y="-150"/>
      <point x="212" y="-191"/>
      <point x="121" y="-191" type="curve" smooth="yes"/>
      <point x="74" y="-191"/>
      <point x="48" y="-183"/>
      <point x="20" y="-171" type="curve"/>
      <point x="20" y="-80" type="line"/>
      <point x="48" y="-80" type="line"/>
      <point x="61" y="-106"/>
      <point x="74" y="-120"/>
      <point x="102" y="-120" type="curve" smooth="yes"/>
      <point x="126" y="-120"/>
      <point x="141" y="-107"/>
      <point x="148" y="-85" type="curve" smooth="yes"/>
      <point x="156" y="-58" type="line"/>
      <point x="9" y="532" type="line"/>
      <point x="146" y="532" type="line"/>
      <point x="218" y="115" type="line"/>
      <point x="289" y="532" type="line"/>
    </contour>
  </outline>
</glyph>
<glyph name="braceleft" format="1">
  <advance width="357"/>
  <unicode hex="007B"/>
  <outline>
    <contour>
      <point x="337" y="-80" type="line"/>
      <point x="224" y="-80" type="line" smooth="yes"/>
      <point x="143" y="-80"/>
      <point x="101" y="-38"/>
      <point x="101" y="46" type="curve" smooth="yes"/>
      <point x="101" y="89"/>
      <point x="117" y="149"/>
      <point x="117" y="193" type="curve" smooth="yes"/>
      <point x="117" y="264"/>
      <point x="72" y="290"/>
      <point x="11" y="290" type="curve"/>
      <point x="11" y="350" type="line"/>
      <point x="72" y="350"/>
      <point x="117" y="376"/>
      <point x="117" y="447" type="curve" smooth="yes"/>
      <point x="117" y="491"/>
      <point x="101" y="551"/>
      <point x="101" y="594" type="curve" smooth="yes"/>
      <point x="101" y="678"/>
      <point x="143" y="720"/>
      <point x="224" y="720" type="curve" smooth="yes"/>
      <point x="337" y="720" type="line"/>
      <point x="337" y="660" type="line"/>
      <point x="280" y="660" type="line" smooth="yes"/>
      <point x="237" y="660"/>
      <point x="217" y="637"/>
      <point x="217" y="589" type="curve" smooth="yes"/>
      <point x="217" y="554"/>
      <point x="233" y="496"/>
      <point x="233" y="447" type="curve" smooth="yes"/>
      <point x="233" y="370"/>
      <point x="192" y="343"/>
      <point x="147" y="324" type="curve"/>
      <point x="147" y="316" type="line"/>
      <point x="192" y="297"/>
      <point x="233" y="270"/>
      <point x="233" y="193" type="curve" smooth="yes"/>
      <point x="233" y="144"/>
      <point x="217" y="86"/>
      <point x="217" y="51" type="curve" smooth="yes"/>
      <point x="217" y="3"/>
      <point x="237" y="-20"/>
      <point x="280" y="-20" type="curve" smooth="yes"/>
      <point x="337" y="-20" type="line"/>
    </contour>
  </outline>
</glyph>
<glyph name="cent" format="1">
  <advance width="400"/>
  <unicode hex="00A2"/>
  <outline>
    <contour>
      <point x="383" y="165" type="line"/>
      <point x="367" y="53"/>
      <point x="314" y="-10"/>
      <point x="208" y="-10" type="curve" smooth="yes"/>
      <point x="182" y="-10"/>
      <point x="158" y="-5"/>
      <point x="136" y="4" type="curve"/>
      <point x="96" y="-95" type="line"/>
      <point x="39" y="-95" type="line"/>
      <point x="93" y="33" type="line"/>
      <point x="49" y="75"/>
      <point x="23" y="145"/>
      <point x="23" y="237" type="curve" smooth="yes"/>
      <point x="23" y="297" type="line" smooth="yes"/>
      <point x="23" y="451"/>
      <point x="98" y="542"/>
      <point x="211" y="542" type="curve" smooth="yes"/>
      <point x="242" y="542"/>
      <point x="269" y="536"/>
      <point x="291" y="524" type="curve"/>
      <point x="332" y="627" type="line"/>
      <point x="388" y="627" type="line"/>
      <point x="182" y="96" type="line"/>
      <point x="192" y="84"/>
      <point x="203" y="80"/>
      <point x="215" y="80" type="curve" smooth="yes"/>
      <point x="246" y="80"/>
      <point x="270" y="107"/>
      <point x="279" y="187" type="curve"/>
    </contour>
    <contour>
      <point x="254" y="434" type="line"/>
      <point x="243" y="448"/>
      <point x="229" y="454"/>
      <point x="213" y="454" type="curve" smooth="yes"/>
      <point x="178" y="454"/>
      <point x="148" y="413"/>
      <point x="148" y="305" type="curve" smooth="yes"/>
      <point x="148" y="235" type="line" smooth="yes"/>
      <point x="148" y="211"/>
      <point x="151" y="181"/>
      <point x="157" y="161" type="curve"/>
    </contour>
  </outline>
</glyph>
<glyph name="sterling" format="1">
  <advance width="488"/>
  <unicode hex="00A3"/>
  <outline>
    <contour>
      <point x="475" y="187" type="line"/>
      <point x="448" y="50"/>
      <point x="396" y="-5"/>
      <point x="323" y="-5" type="curve" smooth="yes"/>
      <point x="278" y="-5"/>
      <point x="231" y="17"/>
      <point x="182" y="56" type="curve"/>
      <point x="144" y="22"/>
      <point x="92" y="1"/>
      <point x="25" y="-6" type="curve"/>
      <point x="25" y="96" type="line"/>
      <point x="92" y="108"/>
      <point x="123" y="147"/>
      <point x="123" y="232" type="curve" smooth="yes"/>
      <point x="123" y="263"/>
      <point x="119" y="295"/>
      <point x="113" y="321" type="curve"/>
      <point x="24" y="321" type="line"/>
      <point x="24" y="394" type="line"/>
      <point x="94" y="394" type="line"/>
      <point x="82" y="434"/>
      <point x="68" y="483"/>
      <point x="68" y="537" type="curve" smooth="yes"/>
      <point x="68" y="662"/>
      <point x="138" y="732"/>
      <point x="258" y="732" type="curve" smooth="yes"/>
      <point x="376" y="732"/>
      <point x="423" y="668"/>
      <point x="459" y="571" type="curve"/>
      <point x="349" y="520" type="line"/>
      <point x="324" y="592"/>
      <point x="300" y="618"/>
      <point x="264" y="618" type="curve" smooth="yes"/>
      <point x="224" y="618"/>
      <point x="200" y="588"/>
      <point x="200" y="532" type="curve" smooth="yes"/>
      <point x="200" y="489"/>
      <point x="215" y="439"/>
      <point x="229" y="394" type="curve"/>
      <point x="374" y="394" type="line"/>
      <point x="374" y="321" type="line"/>
      <point x="247" y="321" type="line"/>
      <point x="251" y="294"/>
      <point x="256" y="262"/>
      <point x="256" y="231" type="curve" smooth="yes"/>
      <point x="256" y="196"/>
      <point x="250" y="165"/>
      <point x="239" y="139" type="curve"/>
      <point x="265" y="119"/>
      <point x="288" y="109"/>
      <point x="310" y="109" type="curve" smooth="yes"/>
      <point x="347" y="109"/>
      <point x="372" y="139"/>
      <point x="393" y="221" type="curve"/>
    </contour>
  </outline>
</glyph>
<glyph name="copyright" format="1">
  <advance width="654"/>
  <unicode hex="00A9"/>
  <outline>
    <contour>
      <point x="627" y="361" type="curve" smooth="yes"/>
      <point x="627" y="148"/>
      <point x="500" y="-12"/>
      <point x="327" y="-12" type="curve" smooth="yes"/>
      <point x="154" y="-12"/>
      <point x="28" y="145"/>
      <point x="28" y="359" type="curve" smooth="yes"/>
      <point x="28" y="573"/>
      <point x="154" y="732"/>
      <point x="328" y="732" type="curve" smooth="yes"/>
      <point x="501" y="732"/>
      <point x="627" y="573"/>
    </contour>
    <contour>
      <point x="591" y="359" type="curve" smooth="yes"/>
      <point x="591" y="550"/>
      <point x="486" y="699"/>
      <point x="327" y="699" type="curve" smooth="yes"/>
      <point x="168" y="699"/>
      <point x="64" y="552"/>
      <point x="64" y="361" type="curve" smooth="yes"/>
      <point x="64" y="170"/>
      <point x="169" y="21"/>
      <point x="328" y="21" type="curve" smooth="yes"/>
      <point x="486" y="21"/>
      <point x="591" y="168"/>
    </contour>
    <contour>
      <point x="451" y="291" type="line"/>
      <point x="439" y="195"/>
      <point x="401" y="147"/>
      <point x="323" y="147" type="curve" smooth="yes"/>
      <point x="247" y="147"/>
      <point x="193" y="209"/>
      <point x="193" y="331" type="curve" smooth="yes"/>
      <point x="193" y="398" type="line" smooth="yes"/>
      <point x="193" y="521"/>
      <point x="246" y="582"/>
      <point x="324" y="582" type="curve" smooth="yes"/>
      <point x="406" y="582"/>
      <point x="439" y="528"/>
      <point x="450" y="442" type="curve"/>
      <point x="365" y="422" type="line"/>
      <point x="360" y="488"/>
      <point x="349" y="513"/>
      <point x="324" y="513" type="curve" smooth="yes"/>
      <point x="294" y="513"/>
      <point x="283" y="471"/>
      <point x="283" y="409" type="curve" smooth="yes"/>
      <point x="283" y="321" type="line" smooth="yes"/>
      <point x="283" y="255"/>
      <point x="297" y="217"/>
      <point x="325" y="217" type="curve" smooth="yes"/>
      <point x="350" y="217"/>
      <point x="361" y="242"/>
      <point x="368" y="310" type="curve"/>
    </contour>
  </outline>
</glyph>
<glyph name="guillemotleft" format="1">
  <advance width="414"/>
  <unicode hex="00AB"/>
  <outline>
    <contour>
      <point x="391" y="70" type="line"/>
      <point x="321" y="70" type="line"/>
      <point x="190" y="266" type="line"/>
      <point x="321" y="462" type="line"/>
      <point x="391" y="462" type="line"/>
      <point x="320" y="266" type="line"/>
    </contour>
    <contour>
      <point x="212" y="70" type="line"/>
      <point x="143" y="70" type="line"/>
      <point x="12" y="266" type="line"/>
      <point x="143" y="462" type="line"/>
      <point x="212" y="462" type="line"/>
      <point x="142" y="266" type="line"/>
    </contour>
  </outline>
</glyph>
<glyph name="degree" format="1">
  <advance width="345"/>
  <unicode hex="00B0"/>
  <outline>
    <contour>
      <point x="314" y="588" type="curve" smooth="yes"/>
      <point x="314" y="510"/>
      <point x="255" y="453"/>
      <point x="176" y="453" type="curve" smooth="yes"/>
      <point x="97" y="453"/>
      <point x="39" y="510"/>
      <point x="39" y="588" type="curve" smooth="yes"/>
      <point x="39" y="667"/>
      <point x="97" y="724"/>
      <point x="176" y="724" type="curve" smooth="yes"/>
      <point x="255" y="724"/>
      <point x="314" y="667"/>
    </contour>
    <contour>
      <point x="248" y="588" type="curve" smooth="yes"/>
      <point x="248" y="633"/>
      <point x="220" y="666"/>
      <point x="176" y="666" type="curve" smooth="yes"/>
      <point x="133" y="666"/>
      <point x="105" y="633"/>
      <point x="105" y="588" type="curve" smooth="yes"/>
      <point x="105" y="544"/>
      <point x="133" y="510"/>
      <point x="176" y="510" type="curve" smooth="yes"/>
      <point x="220" y="510"/>
      <point x="248" y="544"/>
    </contour>
  </outline>
</glyph>
<glyph name="paragraph" format="1">
  <advance width="446"/>
  <unicode hex="00B6"/>
  <outline>
    <contour>
      <point x="399" y="0" type="line"/>
      <point x="346" y="0" type="line"/>
      <point x="346" y="662" type="line"/>
      <point x="273" y="662" type="line"/>
      <point x="273" y="0" type="line"/>
      <point x="220" y="0" type="line"/>
      <point x="220" y="310" type="line"/>
      <point x="96" y="316"/>
      <point x="18" y="371"/>
      <point x="18" y="516" type="curve" smooth="yes"/>
      <point x="18" y="657"/>
      <point x="100" y="720"/>
      <point x="227" y="720" type="curve" smooth="yes"/>
      <point x="399" y="720" type="line"/>
    </contour>
  </outline>
</glyph>
<glyph name="cedilla" format="1">
  <advance width="397"/>
  <unicode hex="00B8"/>
  <outline>
    <contour>
      <point x="303" y="-91" type="curve" smooth="yes"/>
      <point x="303" y="-152"/>
      <point x="242" y="-181"/>
      <point x="91" y="-178" type="curve"/>
      <point x="91" y="-149" type="line"/>
      <point x="197" y="-148"/>
      <point x="231" y="-133"/>
      <point x="231" y="-109" type="curve" smooth="yes"/>
      <point x="231" y="-96"/>
      <point x="221" y="-89"/>
      <point x="202" y="-89" type="curve" smooth="yes"/>
      <point x="188" y="-89"/>
      <point x="172" y="-92"/>
      <point x="158" y="-99" type="curve"/>
      <point x="132" y="-79" type="line"/>
      <point x="183" y="0" type="line"/>
      <point x="222" y="0" type="line"/>
      <point x="195" y="-42" type="line"/>
      <point x="204" y="-40"/>
      <point x="219" y="-37"/>
      <point x="234" y="-37" type="curve" smooth="yes"/>
      <point x="275" y="-37"/>
      <point x="303" y="-55"/>
    </contour>
  </outline>
</glyph>
<glyph name="ordmasculine" format="1">
  <advance width="304"/>
  <unicode hex="00BA"/>
  <outline>
    <contour>
      <point x="284" y="540" type="line" smooth="yes"/>
      <point x="284" y="441"/>
      <point x="234" y="381"/>
      <point x="152" y="381" type="curve" smooth="yes"/>
      <point x="70" y="381"/>
      <point x="20" y="441"/>
      <point x="20" y="540" type="curve" smooth="yes"/>
      <point x="20" y="567" type="line" smooth="yes"/>
      <point x="20" y="666"/>
      <point x="70" y="726"/>
      <point x="152" y="726" type="curve" smooth="yes"/>
      <point x="234" y="726"/>
      <point x="284" y="666"/>
      <point x="284" y="567" type="curve" smooth="yes"/>
    </contour>
    <contour>
      <point x="278" y="284" type="line"/>
      <point x="26" y="284" type="line"/>
      <point x="26" y="342" type="line"/>
      <point x="278" y="342" type="line"/>
    </contour>
    <contour>
      <point x="191" y="534" type="curve" smooth="yes"/>
      <point x="191" y="573" type="line" smooth="yes"/>
      <point x="191" y="634"/>
      <point x="179" y="663"/>
      <point x="152" y="663" type="curve" smooth="yes"/>
      <point x="125" y="663"/>
      <point x="114" y="635"/>
      <point x="114" y="573" type="curve"/>
      <point x="113" y="573"/>
      <point x="113" y="535"/>
      <point x="114" y="534" type="curve"/>
      <point x="114" y="472"/>
      <point x="125" y="445"/>
      <point x="152" y="445" type="curve" smooth="yes"/>
      <point x="179" y="445"/>
      <point x="191" y="471"/>
    </contour>
  </outline>
</glyph>
<glyph name="Ccedilla" format="1">
  <advance width="477"/>
  <unicode hex="00C7"/>
  <outline>
    <contour>
      <point x="460" y="228" type="line"/>
      <point x="442" y="75"/>
      <point x="383" y="-6"/>
      <point x="261" y="-12" type="curve"/>
      <point x="242" y="-42" type="line"/>
      <point x="251" y="-40"/>
      <point x="266" y="-37"/>
      <point x="281" y="-37" type="curve" smooth="yes"/>
      <point x="322" y="-37"/>
      <point x="350" y="-55"/>
      <point x="350" y="-91" type="curve" smooth="yes"/>
      <point x="350" y="-152"/>
      <point x="289" y="-181"/>
      <point x="138" y="-178" type="curve"/>
      <point x="138" y="-149" type="line"/>
      <point x="244" y="-148"/>
      <point x="278" y="-133"/>
      <point x="278" y="-109" type="curve" smooth="yes"/>
      <point x="278" y="-96"/>
      <point x="268" y="-89"/>
      <point x="249" y="-89" type="curve" smooth="yes"/>
      <point x="234" y="-89"/>
      <point x="219" y="-92"/>
      <point x="205" y="-99" type="curve"/>
      <point x="179" y="-79" type="line"/>
      <point x="223" y="-11" type="line"/>
      <point x="107" y="1"/>
      <point x="28" y="106"/>
      <point x="28" y="302" type="curve" smooth="yes"/>
      <point x="28" y="417" type="line" smooth="yes"/>
      <point x="28" y="626"/>
      <point x="117" y="732"/>
      <point x="249" y="732" type="curve" smooth="yes"/>
      <point x="384" y="732"/>
      <point x="440" y="641"/>
      <point x="457" y="498" type="curve"/>
      <point x="322" y="466" type="line"/>
      <point x="313" y="579"/>
      <point x="294" y="623"/>
      <point x="249" y="623" type="curve" smooth="yes"/>
      <point x="193" y="623"/>
      <point x="173" y="549"/>
      <point x="173" y="435" type="curve" smooth="yes"/>
      <point x="173" y="286" type="line" smooth="yes"/>
      <point x="173" y="166"/>
      <point x="198" y="97"/>
      <point x="250" y="97" type="curve" smooth="yes"/>
      <point x="295" y="97"/>
      <point x="316" y="140"/>
      <point x="328" y="257" type="curve"/>
    </contour>
  </outline>
</glyph>
<glyph name="Oslash" format="1">
  <advance width="511"/>
  <unicode hex="00D8"/>
  <outline>
    <contour>
      <point x="486" y="817" type="line"/>
      <point x="415" y="658" type="line"/>
      <point x="458" y="606"/>
      <point x="483" y="527"/>
      <point x="483" y="418" type="curve" smooth="yes"/>
      <point x="483" y="303" type="line" smooth="yes"/>
      <point x="483" y="94"/>
      <point x="392" y="-12"/>
      <point x="256" y="-12" type="curve" smooth="yes"/>
      <point x="215" y="-12"/>
      <point x="177" y="-1"/>
      <point x="146" y="18" type="curve"/>
      <point x="101" y="-97" type="line"/>
      <point x="25" y="-97" type="line"/>
      <point x="96" y="62" type="line"/>
      <point x="54" y="114"/>
      <point x="28" y="192"/>
      <point x="28" y="302" type="curve" smooth="yes"/>
      <point x="28" y="417" type="line" smooth="yes"/>
      <point x="28" y="626"/>
      <point x="119" y="732"/>
      <point x="256" y="732" type="curve" smooth="yes"/>
      <point x="296" y="732"/>
      <point x="333" y="722"/>
      <point x="365" y="702" type="curve"/>
      <point x="410" y="817" type="line"/>
    </contour>
    <contour>
      <point x="319" y="591" type="line"/>
      <point x="305" y="618"/>
      <point x="287" y="631"/>
      <point x="256" y="631" type="curve" smooth="yes"/>
      <point x="196" y="631"/>
      <point x="172" y="561"/>
      <point x="172" y="456" type="curve" smooth="yes"/>
      <point x="172" y="322" type="line" smooth="yes"/>
      <point x="172" y="294"/>
      <point x="172" y="240"/>
      <point x="172" y="222" type="curve"/>
    </contour>
    <contour>
      <point x="339" y="265" type="curve" smooth="yes"/>
      <point x="339" y="395" type="line" smooth="yes"/>
      <point x="339" y="423"/>
      <point x="339" y="476"/>
      <point x="339" y="498" type="curve"/>
      <point x="192" y="129" type="line"/>
      <point x="207" y="100"/>
      <point x="227" y="89"/>
      <point x="256" y="89" type="curve" smooth="yes"/>
      <point x="315" y="89"/>
      <point x="339" y="159"/>
    </contour>
  </outline>
</glyph>
<glyph name="Thorn" format="1">
  <advance width="465"/>
  <unicode hex="00DE"/>
  <outline>
    <contour>
      <point x="451" y="376" type="curve" smooth="yes"/>
      <point x="451" y="223"/>
      <point x="363" y="144"/>
      <point x="216" y="144" type="curve" smooth="yes"/>
      <point x="184" y="144" type="line"/>
      <point x="184" y="0" type="line"/>
      <point x="42" y="0" type="line"/>
      <point x="42" y="720" type="line"/>
      <point x="184" y="720" type="line"/>
      <point x="184" y="596" type="line"/>
      <point x="216" y="596" type="line" smooth="yes"/>
      <point x="362" y="596"/>
      <point x="451" y="524"/>
    </contour>
    <contour>
      <point x="314" y="373" type="curve" smooth="yes"/>
      <point x="314" y="450"/>
      <point x="282" y="491"/>
      <point x="216" y="491" type="curve" smooth="yes"/>
      <point x="183" y="491" type="line"/>
      <point x="183" y="252" type="line"/>
      <point x="218" y="252" type="line" smooth="yes"/>
      <point x="283" y="252"/>
      <point x="314" y="295"/>
    </contour>
  </outline>
</glyph>
<glyph name="ae" format="1">
  <advance width="655"/>
  <unicode hex="00E6"/>
  <outline>
    <contour>
      <point x="633" y="232" type="line"/>
      <point x="383" y="232" type="line"/>
      <point x="383" y="224" type="line" smooth="yes"/>
      <point x="383" y="134"/>
      <point x="421" y="94"/>
      <point x="483" y="94" type="curve" smooth="yes"/>
      <point x="520" y="94"/>
      <point x="565" y="111"/>
      <point x="607" y="138" type="curve"/>
      <point x="637" y="48" type="line"/>
      <point x="585" y="13"/>
      <point x="528" y="-8"/>
      <point x="457" y="-8" type="curve" smooth="yes"/>
      <point x="384" y="-8"/>
      <point x="326" y="24"/>
      <point x="297" y="75" type="curve"/>
      <point x="293" y="75" type="line"/>
      <point x="256" y="24"/>
      <point x="198" y="-6"/>
      <point x="139" y="-6" type="curve" smooth="yes"/>
      <point x="70" y="-6"/>
      <point x="13" y="37"/>
      <point x="13" y="134" type="curve" smooth="yes"/>
      <point x="13" y="236"/>
      <point x="88" y="302"/>
      <point x="251" y="318" type="curve"/>
      <point x="251" y="372" type="line" smooth="yes"/>
      <point x="251" y="416"/>
      <point x="233" y="439"/>
      <point x="197" y="439" type="curve" smooth="yes"/>
      <point x="162" y="439"/>
      <point x="126" y="427"/>
      <point x="73" y="396" type="curve"/>
      <point x="36" y="479" type="line"/>
      <point x="97" y="515"/>
      <point x="162" y="538"/>
      <point x="233" y="538" type="curve" smooth="yes"/>
      <point x="298" y="538"/>
      <point x="324" y="506"/>
      <point x="330" y="469" type="curve"/>
      <point x="335" y="469" type="line"/>
      <point x="354" y="511"/>
      <point x="400" y="542"/>
      <point x="451" y="542" type="curve" smooth="yes"/>
      <point x="567" y="542"/>
      <point x="633" y="442"/>
      <point x="633" y="276" type="curve" smooth="yes"/>
    </contour>
    <contour>
      <point x="508" y="291" type="line"/>
      <point x="507" y="411"/>
      <point x="485" y="456"/>
      <point x="447" y="456" type="curve" smooth="yes"/>
      <point x="406" y="456"/>
      <point x="383" y="411"/>
      <point x="383" y="293" type="curve" smooth="yes"/>
      <point x="383" y="291" type="line"/>
    </contour>
    <contour>
      <point x="271" y="126" type="curve"/>
      <point x="263" y="151"/>
      <point x="256" y="192"/>
      <point x="256" y="241" type="curve" smooth="yes"/>
      <point x="256" y="244"/>
      <point x="256" y="262"/>
      <point x="256" y="264" type="curve"/>
      <point x="170" y="250"/>
      <point x="142" y="206"/>
      <point x="142" y="153" type="curve" smooth="yes"/>
      <point x="142" y="102"/>
      <point x="168" y="80"/>
      <point x="199" y="80" type="curve" smooth="yes"/>
      <point x="225" y="80"/>
      <point x="254" y="96"/>
    </contour>
  </outline>
</glyph>
<glyph name="eth" format="1">
  <advance width="428"/>
  <unicode hex="00F0"/>
  <outline>
    <contour>
      <point x="411" y="248" type="line" smooth="yes"/>
      <point x="411" y="77"/>
      <point x="331" y="-10"/>
      <point x="213" y="-10" type="curve" smooth="yes"/>
      <point x="94" y="-10"/>
      <point x="24" y="77"/>
      <point x="24" y="248" type="curve" smooth="yes"/>
      <point x="24" y="283" type="line" smooth="yes"/>
      <point x="24" y="454"/>
      <point x="83" y="535"/>
      <point x="180" y="535" type="curve" smooth="yes"/>
      <point x="222" y="535"/>
      <point x="257" y="506"/>
      <point x="279" y="453" type="curve"/>
      <point x="285" y="453" type="line"/>
      <point x="276" y="512"/>
      <point x="248" y="573"/>
      <point x="207" y="628" type="curve"/>
      <point x="116" y="577" type="line"/>
      <point x="116" y="633" type="line"/>
      <point x="174" y="667" type="line"/>
      <point x="155" y="687"/>
      <point x="134" y="707"/>
      <point x="112" y="724" type="curve"/>
      <point x="219" y="762" type="line"/>
      <point x="236" y="746"/>
      <point x="254" y="730"/>
      <point x="270" y="710" type="curve"/>
      <point x="367" y="762" type="line"/>
      <point x="367" y="709" type="line"/>
      <point x="302" y="673" type="line"/>
      <point x="365" y="587"/>
      <point x="411" y="470"/>
      <point x="411" y="309" type="curve" smooth="yes"/>
    </contour>
    <contour>
      <point x="278" y="245" type="curve" smooth="yes"/>
      <point x="278" y="286" type="line" smooth="yes"/>
      <point x="278" y="410"/>
      <point x="256" y="452"/>
      <point x="217" y="452" type="curve" smooth="yes"/>
      <point x="178" y="452"/>
      <point x="157" y="410"/>
      <point x="157" y="286" type="curve" smooth="yes"/>
      <point x="157" y="245" type="line" smooth="yes"/>
      <point x="157" y="122"/>
      <point x="179" y="80"/>
      <point x="218" y="80" type="curve" smooth="yes"/>
      <point x="257" y="80"/>
      <point x="278" y="121"/>
    </contour>
  </outline>
</glyph>
<glyph name="OE" format="1">
  <advance width="709"/>
  <unicode hex="0152"/>
  <outline>
    <contour>
      <point x="688" y="0" type="line"/>
      <point x="269" y="0" type="line" smooth="yes"/>
      <point x="126" y="0"/>
      <point x="28" y="98"/>
      <point x="28" y="309" type="curve" smooth="yes"/>
      <point x="28" y="411" type="line" smooth="yes"/>
      <point x="28" y="623"/>
      <point x="128" y="720"/>
      <point x="270" y="720" type="curve" smooth="yes"/>
      <point x="680" y="720" type="line"/>
      <point x="680" y="605" type="line"/>
      <point x="460" y="605" type="line"/>
      <point x="460" y="427" type="line"/>
      <point x="623" y="427" type="line"/>
      <point x="623" y="318" type="line"/>
      <point x="460" y="318" type="line"/>
      <point x="460" y="115" type="line"/>
      <point x="688" y="115" type="line"/>
    </contour>
    <contour>
      <point x="319" y="102" type="line"/>
      <point x="319" y="617" type="line"/>
      <point x="278" y="617" type="line" smooth="yes"/>
      <point x="207" y="617"/>
      <point x="169" y="554"/>
      <point x="169" y="445" type="curve" smooth="yes"/>
      <point x="169" y="276" type="line" smooth="yes"/>
      <point x="169" y="166"/>
      <point x="207" y="102"/>
      <point x="280" y="102" type="curve" smooth="yes"/>
    </contour>
  </outline>
</glyph>
<glyph name="oe" format="1">
  <advance width="682"/>
  <unicode hex="0153"/>
  <outline>
    <contour>
      <point x="660" y="232" type="line"/>
      <point x="410" y="232" type="line"/>
      <point x="410" y="224" type="line" smooth="yes"/>
      <point x="410" y="131"/>
      <point x="447" y="94"/>
      <point x="510" y="94" type="curve" smooth="yes"/>
      <point x="547" y="94"/>
      <point x="592" y="111"/>
      <point x="634" y="138" type="curve"/>
      <point x="664" y="48" type="line"/>
      <point x="611" y="13"/>
      <point x="553" y="-8"/>
      <point x="488" y="-8" type="curve" smooth="yes"/>
      <point x="424" y="-8"/>
      <point x="373" y="27"/>
      <point x="352" y="84" type="curve"/>
      <point x="347" y="84" type="line"/>
      <point x="326" y="29"/>
      <point x="280" y="-10"/>
      <point x="215" y="-10" type="curve" smooth="yes"/>
      <point x="97" y="-10"/>
      <point x="23" y="87"/>
      <point x="23" y="241" type="curve" smooth="yes"/>
      <point x="23" y="292" type="line" smooth="yes"/>
      <point x="23" y="446"/>
      <point x="97" y="542"/>
      <point x="215" y="542" type="curve" smooth="yes"/>
      <point x="275" y="542"/>
      <point x="330" y="502"/>
      <point x="345" y="449" type="curve"/>
      <point x="350" y="449" type="line"/>
      <point x="367" y="505"/>
      <point x="422" y="542"/>
      <point x="478" y="542" type="curve" smooth="yes"/>
      <point x="592" y="542"/>
      <point x="660" y="442"/>
      <point x="660" y="276" type="curve" smooth="yes"/>
    </contour>
    <contour>
      <point x="535" y="291" type="line"/>
      <point x="534" y="411"/>
      <point x="512" y="456"/>
      <point x="474" y="456" type="curve" smooth="yes"/>
      <point x="433" y="456"/>
      <point x="410" y="411"/>
      <point x="410" y="293" type="curve" smooth="yes"/>
      <point x="410" y="291" type="line"/>
    </contour>
    <contour>
      <point x="280" y="230" type="curve" smooth="yes"/>
      <point x="280" y="303" type="line" smooth="yes"/>
      <point x="280" y="404"/>
      <point x="259" y="452"/>
      <point x="218" y="452" type="curve" smooth="yes"/>
      <point x="177" y="452"/>
      <point x="158" y="404"/>
      <point x="158" y="303" type="curve" smooth="yes"/>
      <point x="158" y="230" type="line" smooth="yes"/>
      <point x="158" y="128"/>
      <point x="178" y="80"/>
      <point x="219" y="80" type="curve" smooth="yes"/>
      <point x="260" y="80"/>
      <point x="280" y="128"/>
    </contour>
  </outline>
</glyph>
<glyph name="breve" format="1">
  <advance width="397"/>
  <unicode hex="02D8"/>
  <outline>
    <contour>
      <point x="326" y="713" type="line"/>
      <point x="324" y="628"/>
      <point x="285" y="577"/>
      <point x="198" y="577" type="curve" smooth="yes"/>
      <point x="112" y="577"/>
      <point x="73" y="628"/>
      <point x="70" y="713" type="curve"/>
      <point x="122" y="713" type="line"/>
      <point x="129" y="670"/>
      <point x="156" y="649"/>
      <point x="198" y="649" type="curve" smooth="yes"/>
      <point x="241" y="649"/>
      <point x="267" y="670"/>
      <point x="275" y="713" type="curve"/>
    </contour>
  </outline>
</glyph>
<glyph name="ring" format="1">
  <advance width="397"/>
  <unicode hex="02DA"/>
  <outline>
    <contour>
      <point x="297" y="662" type="curve" smooth="yes"/>
      <point x="297" y="610"/>
      <point x="258" y="573"/>
      <point x="198" y="573" type="curve" smooth="yes"/>
      <point x="139" y="573"/>
      <point x="100" y="610"/>
      <point x="100" y="662" type="curve" smooth="yes"/>
      <point x="100" y="712"/>
      <point x="139" y="750"/>
      <point x="198" y="750" type="curve" smooth="yes"/>
      <point x="258" y="750"/>
      <point x="297" y="712"/>
    </contour>
    <contour>
      <point x="241" y="662" type="curve" smooth="yes"/>
      <point x="241" y="688"/>
      <point x="223" y="707"/>
      <point x="198" y="707" type="curve" smooth="yes"/>
      <point x="173" y="707"/>
      <point x="155" y="688"/>
      <point x="155" y="662" type="curve" smooth="yes"/>
      <point x="155" y="636"/>
      <point x="173" y="616"/>
      <point x="198" y="616" type="curve" smooth="yes"/>
      <point x="224" y="616"/>
      <point x="241" y="636"/>
    </contour>
  </outline>
</glyph>
<glyph name="endash" format="1">
  <advance width="402"/>
  <unicode hex="2013"/>
  <outline>
    <contour>
      <point x="376" y="234" type="line"/>
      <point x="26" y="234" type="line"/>
      <point x="26" y="343" type="line"/>
      <point x="376" y="343" type="line"/>
    </contour>
  </outline>
</glyph>
<glyph name="quotedblbase" format="1">
  <advance width="378"/>
  <unicode hex="201E"/>
  <outline>
    <contour>
      <point x="355" y="145" type="line"/>
      <point x="258" y="-111" type="line"/>
      <point x="200" y="-111" type="line"/>
      <point x="225" y="145" type="line"/>
    </contour>
    <contour>
      <point x="180" y="145" type="line"/>
      <point x="82" y="-111" type="line"/>
      <point x="24" y="-111" type="line"/>
      <point x="50" y="145" type="line"/>
    </contour>
  </outline>
</glyph>
<glyph name="ellipsis" format="1">
  <advance width="609"/>
  <unicode hex="2026"/>
  <outline>
    <contour>
      <point x="580" y="64" type="curve" smooth="yes"/>
      <point x="580" y="24"/>
      <point x="550" y="-7"/>
      <point x="509" y="-7" type="curve" smooth="yes"/>
      <point x="468" y="-7"/>
      <point x="438" y="24"/>
      <point x="438" y="64" type="curve" smooth="yes"/>
      <point x="438" y="105"/>
      <point x="468" y="135"/>
      <point x="509" y="135" type="curve" smooth="yes"/>
      <point x="550" y="135"/>
      <point x="580" y="105"/>
    </contour>
    <contour>
      <point x="376" y="64" type="curve" smooth="yes"/>
      <point x="376" y="24"/>
      <point x="345" y="-7"/>
      <point x="305" y="-7" type="curve" smooth="yes"/>
      <point x="264" y="-7"/>
      <point x="233" y="24"/>
      <point x="233" y="64" type="curve" smooth="yes"/>
      <point x="233" y="105"/>
      <point x="264" y="135"/>
      <point x="305" y="135" type="curve" smooth="yes"/>
      <point x="345" y="135"/>
      <point x="376" y="105"/>
    </contour>
    <contour>
      <point x="172" y="64" type="curve" smooth="yes"/>
      <point x="172" y="24"/>
      <point x="141" y="-7"/>
      <point x="100" y="-7" type="curve" smooth="yes"/>
      <point x="60" y="-7"/>
      <point x="29" y="24"/>
      <point x="29" y="64" type="curve" smooth="yes"/>
      <point x="29" y="105"/>
      <point x="60" y="135"/>
      <point x="100" y="135" type="curve" smooth="yes"/>
      <point x="141" y="135"/>
      <point x="172" y="105"/>
    </contour>
  </outline>
</glyph>
<glyph name="guilsinglleft" format="1">
  <advance width="235"/>
  <unicode hex="2039"/>
  <outline>
    <contour>
      <point x="212" y="70" type="line"/>
      <point x="143" y="70" type="line"/>
      <point x="12" y="266" type="line"/>
      <point x="143" y="462" type="line"/>
      <point x="212" y="462" type="line"/>
      <point x="142" y="266" type="line"/>
    </contour>
  </outline>
</glyph>
<glyph name="Euro" format="1">
  <advance width="475"/>
  <unicode hex="20AC"/>
  <outline>
    <contour>
      <point x="460" y="155" type="line"/>
      <point x="432" y="58"/>
      <point x="382" y="-12"/>
      <point x="250" y="-12" type="curve" smooth="yes"/>
      <point x="115" y="-12"/>
      <point x="26" y="88"/>
      <point x="26" y="324" type="curve" smooth="yes"/>
      <point x="26" y="396" type="line" smooth="yes"/>
      <point x="26" y="630"/>
      <point x="116" y="732"/>
      <point x="251" y="732" type="curve" smooth="yes"/>
      <point x="380" y="732"/>
      <point x="430" y="663"/>
      <point x="457" y="571" type="curve"/>
      <point x="354" y="515" type="line"/>
      <point x="333" y="585"/>
      <point x="308" y="625"/>
      <point x="256" y="625" type="curve" smooth="yes"/>
      <point x="198" y="625"/>
      <point x="167" y="560"/>
      <point x="164" y="459" type="curve"/>
      <point x="341" y="459" type="line"/>
      <point x="341" y="387" type="line"/>
      <point x="162" y="387" type="line"/>
      <point x="162" y="323" type="line"/>
      <point x="341" y="323" type="line"/>
      <point x="341" y="251" type="line"/>
      <point x="165" y="251" type="line"/>
      <point x="169" y="155"/>
      <point x="197" y="95"/>
      <point x="262" y="95" type="curve" smooth="yes"/>
      <point x="309" y="95"/>
      <point x="336" y="135"/>
      <point x="358" y="209" type="curve"/>
    </contour>
  </outline>
</glyph>
<glyph name="I.salt" format="1">
  <advance width="236"/>
  <outline>
    <contour>
      <point x="191" y="0" type="line"/>
      <point x="46" y="0" type="line"/>
      <point x="46" y="720" type="line"/>
      <point x="191" y="720" type="line"/>
    </contour>
  </outline>
</glyph>
<glyph name="bullet" format="1">
  <advance width="357"/>
  <outline>
    <contour>
      <point x="322" y="373" type="curve" smooth="yes"/>
      <point x="322" y="293"/>
      <point x="259" y="230"/>
      <point x="179" y="230" type="curve" smooth="yes"/>
      <point x="98" y="230"/>
      <point x="35" y="293"/>
      <point x="35" y="373" type="curve" smooth="yes"/>
      <point x="35" y="453"/>
      <point x="98" y="516"/>
      <point x="179" y="516" type="curve" smooth="yes"/>
      <point x="259" y="516"/>
      <point x="322" y="453"/>
    </contour>
  </outline>
</glyph>
<glyph name="registered" format="1">
  <advance width="380"/>
  <outline>
    <contour>
      <point x="358" y="530" type="curve" smooth="yes"/>
      <point x="358" y="418"/>
      <point x="286" y="333"/>
      <point x="189" y="333" type="curve" smooth="yes"/>
      <point x="93" y="333"/>
      <point x="22" y="417"/>
      <point x="22" y="529" type="curve" smooth="yes"/>
      <point x="22" y="642"/>
      <point x="94" y="726"/>
      <point x="191" y="726" type="curve" smooth="yes"/>
      <point x="286" y="726"/>
      <point x="358" y="642"/>
    </contour>
    <contour>
      <point x="337" y="529" type="curve" smooth="yes"/>
      <point x="337" y="627"/>
      <point x="277" y="705"/>
      <point x="189" y="705" type="curve" smooth="yes"/>
      <point x="102" y="705"/>
      <point x="43" y="628"/>
      <point x="43" y="530" type="curve" smooth="yes"/>
      <point x="43" y="432"/>
      <point x="103" y="354"/>
      <point x="191" y="354" type="curve" smooth="yes"/>
      <point x="278" y="354"/>
      <point x="337" y="431"/>
    </contour>
    <contour>
      <point x="275" y="421" type="line"/>
      <point x="218" y="421" type="line"/>
      <point x="185" y="506" type="line"/>
      <point x="176" y="506" type="line"/>
      <point x="176" y="421" type="line"/>
      <point x="123" y="421" type="line"/>
      <point x="123" y="647" type="line"/>
      <point x="191" y="647" type="line" smooth="yes"/>
      <point x="236" y="647"/>
      <point x="267" y="625"/>
      <point x="267" y="579" type="curve" smooth="yes"/>
      <point x="267" y="550"/>
      <point x="254" y="530"/>
      <point x="234" y="519" type="curve"/>
    </contour>
    <contour>
      <point x="214" y="576" type="curve" smooth="yes"/>
      <point x="214" y="596"/>
      <point x="205" y="607"/>
      <point x="187" y="607" type="curve" smooth="yes"/>
      <point x="176" y="607" type="line"/>
      <point x="176" y="543" type="line"/>
      <point x="187" y="543" type="line" smooth="yes"/>
      <point x="205" y="543"/>
      <point x="214" y="556"/>
    </contour>
  </outline>
</glyph>
